<mxfile host="app.diagrams.net" agent="Mozilla/5.0 (Windows NT 10.0; Win64; x64; rv:141.0) Gecko/20100101 Firefox/141.0" version="28.1.0">
  <diagram name="Page-1" id="Ou1tNk7OMwFuzK4D-Hef">
    <mxGraphModel dx="1213" dy="633" grid="1" gridSize="10" guides="1" tooltips="1" connect="1" arrows="1" fold="1" page="1" pageScale="1" pageWidth="850" pageHeight="1100" math="0" shadow="0">
      <root>
        <mxCell id="0" />
        <mxCell id="1" parent="0" />
        <mxCell id="oa6BoLP1y4yNuEiWfEcG-1" value="&lt;div&gt;Our app&lt;/div&gt;" style="rounded=0;whiteSpace=wrap;html=1;" parent="1" vertex="1">
          <mxGeometry x="240" y="200" width="120" height="60" as="geometry" />
        </mxCell>
        <mxCell id="oa6BoLP1y4yNuEiWfEcG-2" value="&lt;div&gt;Bank account&lt;/div&gt;" style="text;html=1;align=center;verticalAlign=middle;resizable=0;points=[];autosize=1;strokeColor=none;fillColor=none;" parent="1" vertex="1">
          <mxGeometry x="410" y="288" width="100" height="30" as="geometry" />
        </mxCell>
        <mxCell id="oa6BoLP1y4yNuEiWfEcG-3" value="" style="shape=flexArrow;endArrow=classic;html=1;rounded=0;exitX=0.03;exitY=0.567;exitDx=0;exitDy=0;exitPerimeter=0;" parent="1" source="oa6BoLP1y4yNuEiWfEcG-2" edge="1">
          <mxGeometry width="50" height="50" relative="1" as="geometry">
            <mxPoint x="400" y="360" as="sourcePoint" />
            <mxPoint x="370" y="290" as="targetPoint" />
          </mxGeometry>
        </mxCell>
        <mxCell id="oa6BoLP1y4yNuEiWfEcG-4" value="" style="shape=flexArrow;endArrow=classic;html=1;rounded=0;" parent="1" edge="1">
          <mxGeometry width="50" height="50" relative="1" as="geometry">
            <mxPoint x="299.58" y="190" as="sourcePoint" />
            <mxPoint x="299.58" y="150" as="targetPoint" />
          </mxGeometry>
        </mxCell>
        <mxCell id="oa6BoLP1y4yNuEiWfEcG-5" value="&lt;div&gt;stable coins&lt;/div&gt;" style="rounded=0;whiteSpace=wrap;html=1;" parent="1" vertex="1">
          <mxGeometry x="240" y="70" width="120" height="60" as="geometry" />
        </mxCell>
        <mxCell id="oa6BoLP1y4yNuEiWfEcG-6" value="&lt;div&gt;Smart contract for app lives on these chains etc.:&lt;/div&gt;&lt;div&gt;&lt;br&gt;&lt;/div&gt;&lt;div&gt;Flare, Zircuit, Flow,coinbase, Hedera&lt;/div&gt;" style="rounded=0;whiteSpace=wrap;html=1;" parent="1" vertex="1">
          <mxGeometry x="530" y="70" width="180" height="130" as="geometry" />
        </mxCell>
        <mxCell id="oa6BoLP1y4yNuEiWfEcG-18" style="edgeStyle=orthogonalEdgeStyle;rounded=0;orthogonalLoop=1;jettySize=auto;html=1;" parent="1" source="oa6BoLP1y4yNuEiWfEcG-7" target="oa6BoLP1y4yNuEiWfEcG-1" edge="1">
          <mxGeometry relative="1" as="geometry" />
        </mxCell>
        <mxCell id="oa6BoLP1y4yNuEiWfEcG-7" value="x402 interafce to our app for payment?" style="rounded=0;whiteSpace=wrap;html=1;" parent="1" vertex="1">
          <mxGeometry x="280" y="318" width="100" height="48.5" as="geometry" />
        </mxCell>
        <mxCell id="oa6BoLP1y4yNuEiWfEcG-8" value="&lt;div&gt;Need to be able to Pay the app --&amp;gt; spread it across multiple stable coins&lt;/div&gt;&lt;div&gt;+ save it&lt;/div&gt;" style="rounded=0;whiteSpace=wrap;html=1;" parent="1" vertex="1">
          <mxGeometry x="15" y="283" width="180" height="100" as="geometry" />
        </mxCell>
        <mxCell id="oa6BoLP1y4yNuEiWfEcG-9" value="Need to be able to retrieve from app,&amp;nbsp;" style="rounded=0;whiteSpace=wrap;html=1;" parent="1" vertex="1">
          <mxGeometry x="15" y="383" width="210" height="87" as="geometry" />
        </mxCell>
        <mxCell id="oa6BoLP1y4yNuEiWfEcG-10" value="Front end&amp;nbsp; will be a website." style="rounded=0;whiteSpace=wrap;html=1;" parent="1" vertex="1">
          <mxGeometry x="270" y="396.5" width="120" height="60" as="geometry" />
        </mxCell>
        <mxCell id="oa6BoLP1y4yNuEiWfEcG-11" value="Backend is smart contracts deployed to flare, zircuit flow, coinbase, hedera" style="rounded=0;whiteSpace=wrap;html=1;" parent="1" vertex="1">
          <mxGeometry x="270" y="490" width="130" height="70" as="geometry" />
        </mxCell>
        <mxCell id="oa6BoLP1y4yNuEiWfEcG-13" value="&lt;div&gt;(able account)&lt;/div&gt;" style="text;html=1;align=center;verticalAlign=middle;resizable=0;points=[];autosize=1;strokeColor=none;fillColor=none;" parent="1" vertex="1">
          <mxGeometry x="410" y="310" width="100" height="30" as="geometry" />
        </mxCell>
        <mxCell id="oa6BoLP1y4yNuEiWfEcG-17" value="&lt;div&gt;Features&lt;/div&gt;" style="text;html=1;align=center;verticalAlign=middle;resizable=0;points=[];autosize=1;strokeColor=none;fillColor=none;" parent="1" vertex="1">
          <mxGeometry x="60" y="245" width="70" height="30" as="geometry" />
        </mxCell>
        <mxCell id="oa6BoLP1y4yNuEiWfEcG-19" style="edgeStyle=orthogonalEdgeStyle;rounded=0;orthogonalLoop=1;jettySize=auto;html=1;entryX=0.575;entryY=-0.022;entryDx=0;entryDy=0;entryPerimeter=0;" parent="1" source="oa6BoLP1y4yNuEiWfEcG-7" target="oa6BoLP1y4yNuEiWfEcG-10" edge="1">
          <mxGeometry relative="1" as="geometry" />
        </mxCell>
        <mxCell id="oa6BoLP1y4yNuEiWfEcG-22" value="Purchase using Coinbase" style="text;html=1;align=center;verticalAlign=middle;whiteSpace=wrap;rounded=0;" parent="1" vertex="1">
          <mxGeometry x="170" y="140" width="80" height="50" as="geometry" />
        </mxCell>
        <mxCell id="oa6BoLP1y4yNuEiWfEcG-23" value="Circle???" style="rounded=0;whiteSpace=wrap;html=1;" parent="1" vertex="1">
          <mxGeometry x="15" y="60" width="120" height="60" as="geometry" />
        </mxCell>
      </root>
    </mxGraphModel>
  </diagram>
</mxfile>
